<svg width="90" height="35" viewBox="0 0 124 51" fill="none" xmlns="http://www.w3.org/2000/svg">
<path d="M0.12 48L3.984 39.42H6.948L10.812 48H8.724L7.908 46.188H3.024L2.208 48H0.12ZM3.72 44.628H7.212L5.544 40.92H5.388L3.72 44.628ZM11.5936 50.7V41.82H16.0336C17.1056 41.82 17.9416 42.084 18.5416 42.612C19.1416 43.14 19.4416 43.904 19.4416 44.904C19.4416 45.912 19.1416 46.68 18.5416 47.208C17.9416 47.736 17.1056 48 16.0336 48H13.3336V50.7H11.5936ZM16.0336 43.2H13.3336V46.62H16.0336C16.5536 46.62 16.9496 46.48 17.2216 46.2C17.5016 45.912 17.6416 45.48 17.6416 44.904C17.6416 44.336 17.5016 43.912 17.2216 43.632C16.9496 43.344 16.5536 43.2 16.0336 43.2ZM20.5233 50.7V41.82H24.9633C26.0353 41.82 26.8713 42.084 27.4713 42.612C28.0713 43.14 28.3713 43.904 28.3713 44.904C28.3713 45.912 28.0713 46.68 27.4713 47.208C26.8713 47.736 26.0353 48 24.9633 48H22.2633V50.7H20.5233ZM24.9633 43.2H22.2633V46.62H24.9633C25.4833 46.62 25.8793 46.48 26.1513 46.2C26.4313 45.912 26.5713 45.48 26.5713 44.904C26.5713 44.336 26.4313 43.912 26.1513 43.632C25.8793 43.344 25.4833 43.2 24.9633 43.2Z" fill="#0500E1"/>
<path d="M29.633 48V39.42H38.801V40.98H31.553V43.356H37.865V44.916H31.553V48H29.633ZM42.6288 48.06C41.5568 48.06 40.7208 47.796 40.1208 47.268C39.5208 46.732 39.2208 45.948 39.2208 44.916C39.2208 43.876 39.5208 43.092 40.1208 42.564C40.7208 42.028 41.5568 41.76 42.6288 41.76H44.8488C45.9208 41.76 46.7568 42.028 47.3568 42.564C47.9568 43.092 48.2568 43.876 48.2568 44.916C48.2568 45.948 47.9568 46.732 47.3568 47.268C46.7568 47.796 45.9208 48.06 44.8488 48.06H42.6288ZM42.6288 46.68H44.8488C45.3688 46.68 45.7648 46.536 46.0368 46.248C46.3168 45.96 46.4568 45.516 46.4568 44.916C46.4568 44.308 46.3168 43.86 46.0368 43.572C45.7648 43.284 45.3688 43.14 44.8488 43.14H42.6288C42.1088 43.14 41.7088 43.284 41.4288 43.572C41.1568 43.86 41.0208 44.308 41.0208 44.916C41.0208 45.516 41.1568 45.96 41.4288 46.248C41.7088 46.536 42.1088 46.68 42.6288 46.68ZM49.3397 48V41.82H54.0677C54.7637 41.82 55.2757 41.996 55.6037 42.348C55.9317 42.692 56.0957 43.148 56.0957 43.716V45H54.3317V43.932C54.3317 43.452 54.0917 43.212 53.6117 43.212H51.1037V48H49.3397ZM57.2306 48V39.42H59.1506V46.44H65.4266V48H57.2306ZM69.6171 48.06C68.5451 48.06 67.7091 47.796 67.1091 47.268C66.5091 46.732 66.2091 45.948 66.2091 44.916C66.2091 43.876 66.5091 43.092 67.1091 42.564C67.7091 42.028 68.5451 41.76 69.6171 41.76H72.6171C73.3211 41.76 73.8571 41.928 74.2251 42.264C74.6011 42.592 74.7891 43.064 74.7891 43.68C74.7891 44.936 74.0651 45.564 72.6171 45.564H68.0811C68.2491 46.308 68.7611 46.68 69.6171 46.68H74.4771V48.06H69.6171ZM69.6171 43.14C68.7931 43.14 68.2851 43.488 68.0931 44.184H72.5331C72.6931 44.184 72.8171 44.136 72.9051 44.04C73.0011 43.944 73.0491 43.812 73.0491 43.644C73.0491 43.308 72.8771 43.14 72.5331 43.14H69.6171ZM77.5149 48C76.8669 48 76.3709 47.836 76.0269 47.508C75.6829 47.18 75.5109 46.712 75.5109 46.104C75.5109 45.504 75.6829 45.04 76.0269 44.712C76.3709 44.384 76.8669 44.22 77.5149 44.22H82.1229V43.932C82.1229 43.444 81.8829 43.2 81.4029 43.2H76.3149V41.82H81.8589C82.5869 41.82 83.1029 41.988 83.4069 42.324C83.7109 42.652 83.8629 43.116 83.8629 43.716V48H77.5149ZM77.8269 46.62H82.1229V45.6H77.8269C77.6749 45.6 77.5549 45.648 77.4669 45.744C77.3869 45.832 77.3469 45.952 77.3469 46.104C77.3469 46.256 77.3869 46.38 77.4669 46.476C77.5549 46.572 77.6749 46.62 77.8269 46.62ZM85.1873 48V41.82H89.9153C90.6113 41.82 91.1233 41.996 91.4513 42.348C91.7793 42.692 91.9433 43.148 91.9433 43.716V45H90.1793V43.932C90.1793 43.452 89.9393 43.212 89.4593 43.212H86.9513V48H85.1873ZM92.8983 48V41.82H98.2863C98.9903 41.82 99.5023 41.996 99.8223 42.348C100.15 42.692 100.314 43.148 100.314 43.716V48H98.5743V43.92C98.5743 43.44 98.3343 43.2 97.8543 43.2H94.6383V48H92.8983ZM101.57 48V41.82H103.31V48H101.57ZM101.558 40.8V39.444H103.322V40.8H101.558ZM104.629 48V41.82H110.017C110.721 41.82 111.233 41.996 111.553 42.348C111.881 42.692 112.045 43.148 112.045 43.716V48H110.305V43.92C110.305 43.44 110.065 43.2 109.585 43.2H106.369V48H104.629ZM114.765 50.7V49.32H118.389C118.869 49.32 119.109 49.076 119.109 48.588V48H116.469C115.397 48 114.561 47.736 113.961 47.208C113.361 46.68 113.061 45.916 113.061 44.916C113.061 43.908 113.361 43.14 113.961 42.612C114.561 42.084 115.397 41.82 116.469 41.82H120.849V48.804C120.849 49.372 120.685 49.828 120.357 50.172C120.029 50.524 119.517 50.7 118.821 50.7H114.765ZM116.469 46.62H119.109V43.2H116.469C115.949 43.2 115.549 43.344 115.269 43.632C114.997 43.912 114.861 44.34 114.861 44.916C114.861 45.484 114.997 45.912 115.269 46.2C115.549 46.48 115.949 46.62 116.469 46.62Z" fill="black"/>
<path d="M0.48 36L15.936 1.68H27.792L43.248 36H34.896L31.632 28.752H12.096L8.832 36H0.48ZM14.88 22.512H28.848L22.176 7.68H21.552L14.88 22.512Z" fill="#0500E1"/>
<path d="M47.0944 36V1.68H83.7664V7.92H54.7744V17.424H80.0224V23.664H54.7744V36H47.0944ZM89.0475 36V1.68H96.7275V29.76H121.832V36H89.0475Z" fill="black"/>
</svg>
